<svg width="29" height="29" viewBox="0 0 29 29" fill="none" xmlns="http://www.w3.org/2000/svg">
<g clip-path="url(#clip0_4605_297)">
<path d="M29 14.5C29 6.49194 22.5081 0 14.5 0C6.49194 0 0 6.49194 0 14.5C0 21.2999 4.68176 27.006 10.9974 28.5731V18.9312H8.00748V14.5H10.9974V12.5906C10.9974 7.65542 13.231 5.3679 18.0763 5.3679C18.995 5.3679 20.5801 5.54828 21.2286 5.72808V9.74458C20.8864 9.70862 20.2919 9.69064 19.5535 9.69064C17.1761 9.69064 16.2574 10.5914 16.2574 12.9328V14.5H20.9937L20.1799 18.9312H16.2574V28.8939C23.4372 28.0268 29.0006 21.9136 29.0006 14.5H29Z" fill="#0866FF"/>
<path d="M20.1803 18.9315L20.994 14.5003H16.2577V12.9331C16.2577 10.5916 17.1765 9.6909 19.5539 9.6909C20.2922 9.6909 20.8867 9.70888 21.2289 9.74484V5.72834C20.5805 5.54796 18.9953 5.36816 18.0766 5.36816C13.2313 5.36816 10.9977 7.65568 10.9977 12.5909V14.5003H8.00781V18.9315H10.9977V28.5734C12.1194 28.8518 13.2928 29.0003 14.5003 29.0003C15.0948 29.0003 15.6812 28.9637 16.2572 28.8941V18.9315H20.1797H20.1803Z" fill="white"/>
</g>
<defs>
<clipPath id="clip0_4605_297">
<rect width="29" height="29" fill="white"/>
</clipPath>
</defs>
</svg>
